<svg xmlns="http://www.w3.org/2000/svg" viewBox="0 0 120 100"><defs><style>.cls-1{fill:#0096fb;}.cls-1,.cls-2{fill-rule:evenodd;}.cls-2{fill:#fff;}</style></defs><path class="cls-1" d="M56.96 16.49l10.4 18.01 3.45-5.96.72-1.26-2.06-3.57h10.52l-3.05 5.29h-.01l-4.18 7.22.01.02-2.18 3.77 10 17.38 1.42 2.47 2.82-4.76.01-.02 1.39-2.36-.01-.01 7.86-13.43 13.16-22.79h-8.32l-13.18 22.79-3.63 6.3-3.19-5.55 9.42-16.32 4.17-7.22h-35.54"/><path class="cls-1" d="M60 98.29l19-32.95-3.09-5.23-18.11-31.11h-8.41c6.73 11.6 14.38 24.8 21.17 36.56l-3.19 5.53c-10.21-17.67-21.52-37.09-31.61-54.6h-8.27l23.63 40.9 12.08 20.92-3.2 5.54-27.08-46.91-11.82-20.45h-8.33l23.62 40.9 23.61 40.9z"/><path class="cls-2" d="M54.74 23.71l-4.17-7.22h-8.42l4.18 7.22zM60 1.71a41.8 41.8 0 0 1 30 12.67h-9.62a38.62 38.62 0 0 0-50-.4 41.8 41.8 0 0 1 29.62-12.27zM96.28 64.55a41.74 41.74 0 0 1-25.67 19.57l4.84-8.38a38.6 38.6 0 0 0 25-43 41.77 41.77 0 0 1-4.19 31.79zM23.72 64.55a41.73 41.73 0 0 1-4.12-32l4.84 8.38a38.62 38.62 0 0 0 24.72 43.14 41.76 41.76 0 0 1-25.44-19.52z"/></svg>